<svg width="151" height="90" viewBox="0 0 151 90" xmlns="http://www.w3.org/2000/svg">
    <style>
        path{fill:#fff}@media (prefers-color-scheme:light){path{fill:#000}}
    </style>
    <path d="M2.631 0h139.306c1.425.474 2.326 1.447 2.704 2.917.098 8.315.098 16.63 0 24.944-.703 2.26-2.238 3.208-4.604 2.844-1.452-.428-2.354-1.376-2.704-2.844-.074-6.856-.098-13.712-.074-20.568H7.309v75.414c44.876-.025 89.752 0 134.628.073 2.431.951 3.235 2.677 2.412 5.178-.521 1.031-1.325 1.712-2.412 2.042H2.631C1.351 89.451.473 88.527 0 87.228V2.626C.536 1.41 1.413.535 2.631 0Z"/>
    <path fill-rule="evenodd" clip-rule="evenodd"
          d="M81.42 27.131a8.677 8.677 0 0 1 3.654.51c.755.677 1.096 1.528 1.024 2.554a47.58 47.58 0 0 0-.22 4.667c1.577-2.17 3.648-2.826 6.213-1.969 2.2.936 3.394 2.614 3.581 5.032.46 3.26-.173 6.275-1.9 9.044-1.855 2.031-4.17 3.003-6.943 2.918-4.617-.013-6.907-2.322-6.87-6.93.417-5.125.782-10.255 1.096-15.388a1.65 1.65 0 0 1 .365-.438Zm5.993 9.627c1.6-.323 2.55.309 2.85 1.897a10.91 10.91 0 0 1-.73 5.689c-.796 1.325-1.892 1.69-3.29 1.094l-.657-.657c-.663-2.039-.663-4.08 0-6.126.348-.906.957-1.538 1.827-1.897Z"/>
    <path fill-rule="evenodd" clip-rule="evenodd"
          d="M24.85 28.152c1.414-.024 2.827 0 4.24.073.769.186 1.378.6 1.826 1.24a660.263 660.263 0 0 0 5.116 12.107c.074-4.473.098-8.946.074-13.42 1.219-.024 2.437 0 3.654.073.804.22 1.316.73 1.535 1.532a184.114 184.114 0 0 1-1.096 18.306c.77-.19 1.55-.337 2.338-.437.79-.027 1.57-.051 2.34-.073a6.84 6.84 0 0 1-1.243-3.21 16.002 16.002 0 0 1 .73-7.001c1.069-2.33 2.847-3.813 5.336-4.449a13.097 13.097 0 0 1 6.14.146c2.164.848 3.406 2.429 3.727 4.74.455 3.06-.08 5.928-1.608 8.607-1.824 2.392-4.26 3.559-7.309 3.5a13.116 13.116 0 0 1-2.997-.437l-.146.219c.85 2.916-.221 4.301-3.216 4.157a32.392 32.392 0 0 0-.365-1.75 1.097 1.097 0 0 0-.658-.657c-1.302-.298-2.13.189-2.485 1.459.064.37.214.72.439 1.02a34.6 34.6 0 0 0 3.8 1.897c1.58.962 2.408 2.373 2.485 4.23-.386 3.302-2.262 4.979-5.627 5.033a9.643 9.643 0 0 1-4.751-1.386 2.254 2.254 0 0 1-.804-1.094 8.744 8.744 0 0 1 .146-2.626c.195-.525.56-.696 1.096-.51A26.32 26.32 0 0 0 39.76 60.9c.951.382 1.877.382 2.777 0 .606-.675.558-1.307-.146-1.897a85.045 85.045 0 0 1-3.654-1.75c-1.527-1.263-2.136-2.891-1.828-4.887a4.536 4.536 0 0 1 1.097-2.625c-.78-.117-1.56-.239-2.339-.365a2.72 2.72 0 0 1-.95-.51 230.656 230.656 0 0 1-5.847-12.108 437.18 437.18 0 0 0 0 12.545l-.22.219c-1.17.113-2.35.064-3.508-.146-.688-.161-1.15-.574-1.388-1.24a7.56 7.56 0 0 1-.22-1.823c.467-6.052.906-12.106 1.316-18.16Zm26.312 8.606c2.34-.242 3.46.828 3.362 3.21a10.858 10.858 0 0 1-1.097 4.376c-.851 1.316-1.996 1.68-3.435 1.094a2.763 2.763 0 0 1-1.096-1.824c-.424-2.132-.083-4.126 1.023-5.98.386-.35.8-.64 1.243-.876Zm19.149-4.23c2.275-.143 4.248.538 5.92 2.043 1.295 1.943 1.782 4.082 1.462 6.418-.78 6.66-4.508 9.553-11.183 8.679-2.934-.72-4.567-2.592-4.897-5.616-.365-2.722.073-5.299 1.316-7.731 1.792-2.55 4.253-3.814 7.382-3.793Zm-1.024 4.23c2.27-.166 3.342.904 3.216 3.21.045 2.03-.588 3.804-1.9 5.324-1.973.899-3.216.29-3.727-1.824a11.53 11.53 0 0 1 .438-4.813c.453-.866 1.111-1.498 1.974-1.897Zm30.405-3.792c3.899-.024 7.796 0 11.694.073a6.6 6.6 0 0 1-.365 3.282 322.733 322.733 0 0 0-7.236 9.117l6.578.145c.204.14.301.334.292.584a7.117 7.117 0 0 1-.657 2.844 1.77 1.77 0 0 1-1.243.51l-8.332.147a4.125 4.125 0 0 1 0 1.969c.927-.024 1.853 0 2.777.073a6.052 6.052 0 0 1-.073 2.26c-.218.658-.681.974-1.388.949a8.933 8.933 0 0 1-1.608.073 364.8 364.8 0 0 1-.439 5.324c.027.416.076.83.146 1.24.295.024.591-.001.877-.073.283-.226.605-.4.951-.51a.68.68 0 0 1 .438.291c.323 2.79-.92 4.03-3.727 3.72-2.09-.265-3.016-1.456-2.778-3.574.164-2.138.31-4.278.439-6.418-.44.024-.881 0-1.316-.073a5.017 5.017 0 0 1 .22-2.699c.391-.437.878-.68 1.461-.729l.658-1.677a.678.678 0 0 0-.366-.365 8.42 8.42 0 0 1 .147-2.917 74.512 74.512 0 0 1 4.97-6.127c.822-1.13 1.626-2.273 2.412-3.428a117.513 117.513 0 0 0-5.847-.073 9.95 9.95 0 0 1 .365-3.209c.264-.339.58-.582.95-.729ZM151 42.447v3.939c-1.441 5.013-4.78 7.736-10.013 8.168-4.17-.224-7.24-2.17-9.209-5.834-2.072-5.857-.44-10.355 4.897-13.493 5.553-2.01 9.963-.576 13.229 4.303.47.95.836 1.923 1.096 2.917Zm-10.086-3.5c3.328.33 5.179 2.153 5.555 5.47-.366 3.282-2.193 5.105-5.482 5.47-3.289-.365-5.116-2.188-5.482-5.47.367-3.26 2.17-5.083 5.409-5.47Zm-62.856 7.876c.634-.024 1.27 0 1.9.073.886.432 1.203 1.138.95 2.115-.524 1.029-1.377 1.515-2.558 1.459-1.616.015-2.225-.763-1.827-2.334.3-.695.812-1.132 1.535-1.313Z"/>
    <path fill-rule="evenodd" clip-rule="evenodd"
          d="M55.4 51.345a9.56 9.56 0 0 1 4.386.803c1.08.767 1.738 1.813 1.973 3.136.383 2.423-.006 4.708-1.169 6.855-1.408 2.016-3.357 2.988-5.847 2.918-2.015.11-3.622-.62-4.824-2.188a9.827 9.827 0 0 1-.73-5.397c.51-3.646 2.58-5.688 6.212-6.127Zm-.292 3.355c1.852-.17 2.73.68 2.632 2.553.032 1.557-.455 2.919-1.462 4.084-.962.576-1.815.455-2.558-.365-.723-1.84-.626-3.639.292-5.397a3.134 3.134 0 0 1 1.096-.875Zm13.887-3.355a9.221 9.221 0 0 1 3.8.657c1.422.996 1.885 2.333 1.39 4.011a2.445 2.445 0 0 1-1.535 1.24 14.42 14.42 0 0 1-2.047.073 7.351 7.351 0 0 0-.22-2.188c-.492-.494-1.052-.567-1.68-.219-.445.378-.762.84-.95 1.386-.531 1.583-.482 3.139.146 4.667.714.687 1.566.905 2.558.657a10.045 10.045 0 0 0 2.046-1.021c.678-.17.97.098.877.802-.285 1.866-1.357 3.008-3.215 3.428-3.035.679-5.203-.366-6.505-3.136-.81-2.98-.372-5.751 1.315-8.315 1.105-1.168 2.445-1.848 4.02-2.042Zm19.295 0c1.597-.138 3.06.227 4.386 1.094 1.198 1.585 1.271 3.214.219 4.887-1.17 1.228-2.608 1.933-4.312 2.115-.776.12-1.556.194-2.34.219.01 1.396.717 2.174 2.12 2.334.844-.112 1.502-.526 1.974-1.24 2.057-.005 2.666.943 1.827 2.844a4.68 4.68 0 0 1-1.096.802c-2.218.908-4.411.86-6.578-.146-1.444-.811-2.247-2.051-2.412-3.72-.285-2.559.3-4.893 1.754-7 1.238-1.263 2.724-1.992 4.458-2.189Zm-.584 3.355c1.593-.078 2.055.603 1.388 2.042a3.96 3.96 0 0 1-2.85.803c.123-1.145.61-2.094 1.462-2.845ZM76.45 51.637c.83-.024 1.658 0 2.485.073.643.106 1.057.471 1.243 1.094a75.535 75.535 0 0 1-.804 11.888 5.224 5.224 0 0 1-3.216-.438 4.306 4.306 0 0 1-.366-.656c.019-3.995.238-7.987.658-11.961Zm28.943 0c.732-.024 1.464 0 2.193.073 1.226.353 1.714 1.18 1.461 2.48a108.886 108.886 0 0 0-.365 5.324c.451 1.203 1.255 1.52 2.412.948a3.644 3.644 0 0 0 1.242-2.115c.34-2.128.584-4.27.731-6.418l.22-.22a5.854 5.854 0 0 1 2.923.293c.634.559.877 1.264.731 2.115-.22 3.601-.488 7.2-.804 10.794-.463 2.407-1.9 3.841-4.312 4.303-2.372.446-4.613.106-6.724-1.021-.93-.76-1.101-1.66-.512-2.699 1.235-1.066 2.282-.944 3.143.365 2.783.997 4.293 0 4.531-2.99l-.073-.584c-.829 1.24-1.998 1.824-3.508 1.75-2.117.089-3.433-.884-3.947-2.917a53.28 53.28 0 0 1 .293-7.877 4.104 4.104 0 0 1 .365-1.604Z"/>
</svg>
