<svg width="105" height="99" viewBox="0 0 105 99" xmlns="http://www.w3.org/2000/svg">
    <style>
        path{fill:#fff}@media (prefers-color-scheme:light){path{fill:#000}}
    </style>
    <path d="M2.224 0h94.994c1.097.374 1.859 1.111 2.285 2.21.082 9.95.082 19.9 0 29.848-.609 1.71-1.823 2.467-3.644 2.273-1.248-.3-2.05-1.057-2.409-2.273a2730.41 2730.41 0 0 1-.062-25.917H6.176V92.86c30.389-.02 60.777 0 91.165.061 2.178.969 2.775 2.545 1.791 4.729-.495.68-1.133 1.131-1.914 1.351H2.224C1.14 98.538.4 97.76 0 96.666V2.211A4.185 4.185 0 0 1 2.224 0Z"/>
    <path d="M31.006 21.618c2.06-.052 4.123.009 6.176.184a4.79 4.79 0 0 1 2.656 1.658c.477.785.89 1.607 1.236 2.457a354.428 354.428 0 0 0 7.04 16.827c-.07-6.96-.07-13.92 0-20.88l.186-.185a40.227 40.227 0 0 1 4.447 0c1.889.16 2.98 1.162 3.274 3.01l.061 2.15a704.951 704.951 0 0 1-1.297 20.941c1.758-1.744 3.879-2.788 6.362-3.132a15.332 15.332 0 0 1 8.277.614c2.917 1.697 4.05 4.215 3.397 7.554-.498 2.05-1.795 3.259-3.892 3.624-.864.082-1.729.082-2.594 0l-.185-.184a10.008 10.008 0 0 0-.865-3.808c-1.297-1.145-2.718-1.288-4.261-.43-1.449.88-1.922 2.129-1.421 3.746a8.71 8.71 0 0 0 3.273 2.395 27.77 27.77 0 0 1 5.93 2.948c2.781 2.236 3.913 5.122 3.397 8.66-.786 4.793-3.606 7.516-8.462 8.168-4.095.529-7.883-.29-11.364-2.457a6.581 6.581 0 0 1-1.668-2.026 19.882 19.882 0 0 1 .123-4.054c-.042-.96.349-1.676 1.174-2.15.382-.08.753-.038 1.112.124a28.08 28.08 0 0 0 4.57 2.948 8.539 8.539 0 0 0 4.324.245c1.904-.863 2.233-2.132.988-3.808a15.978 15.978 0 0 0-1.606-.982 65.383 65.383 0 0 1-5.065-2.211c-3.407-2.087-4.93-5.138-4.57-9.15a20.17 20.17 0 0 1-4.57-.308 4.272 4.272 0 0 1-1.668-1.29 942.22 942.22 0 0 1-8.771-18.424c.015 6.551.056 13.102.123 19.653l-.308.307a35.884 35.884 0 0 1-4.2 0c-1.941-.13-3.115-1.133-3.52-3.01a29.357 29.357 0 0 1 0-3.807c.673-8.43 1.291-16.865 1.852-25.303.045-.24.148-.444.309-.614Z"/>
    <path fill-rule="evenodd"
          d="M105 48.149v2.702c-.925 3.806-3.313 6.16-7.165 7.063-4.62.355-7.81-1.59-9.573-5.835-1.111-5.14.762-8.723 5.62-10.747 4.693-1.034 8.172.542 10.439 4.729.277.678.504 1.376.679 2.088Zm-9.512-3.194c3.622-.145 5.454 1.575 5.497 5.16-.504 2.432-2.007 3.742-4.508 3.93-3.26-.42-4.763-2.263-4.51-5.528.538-1.824 1.712-3.01 3.521-3.562Z"/>
</svg>
